<?xml version="1.0" encoding="utf-8"?>
<!-- Generator: Adobe Illustrator 23.0.0, SVG Export Plug-In . SVG Version: 6.00 Build 0)  -->
<svg version="1.1" baseProfile="basic" id="svg22" xmlns="http://www.w3.org/2000/svg" xmlns:xlink="http://www.w3.org/1999/xlink"
	 x="0px" y="0px" viewBox="0 0 1268 520.9" xml:space="preserve">
<style type="text/css">
	.st0{fill:#FFFFFF;}
	.st1{fill:#4F4F00;}
</style>
<g id="g20" transform="matrix(0.1,0,0,-0.1,-6.0000001,947.854)">
	<path class="st0" d="M11551.6,8723.2l-1196-3l-79-255c-44-140-93-299-110-354c-30-97-31-98-58-93c-16,3-229,93-474,200l-447,195
		l-134,12l-135,12l-260-52c-144-29-263-51-266-49c-1.1,1.6,17.5,67.6,45.3,163.1c-0.8,0-1.6-0.1-2.4-0.1
		c-43.1,0.5-85.9,5.7-128.6,10.8c-21.3,2.5-38.9,7.9-52.9,15.1h-782.4l-12-47c-37-138-27-123-85-123c-68-1-116-19-180-68
		c-29-23-78-53-109-67l-56-25l-188,9c-104,6-328,20-499,31c-285,19-317,23-400,50c-171.7,55.8-492.2,155-777,241.8
		c-144.4,3-289.7,19.8-417.2,83.2c-18,9-25.6,29.8-23.6,49.4c-77.4,22.7-124.7,36-125.1,34.7c-2-4,4-58,12-120c9-62,15-114,13-115
		c-0.7-1.4-23.5,34.2-54.6,85.2c24.7-56.3,3.5-98.8-31.8-107.7c16.4-35.2-2-72.6-45.4-82c37-72.8,10.8-70.5-69.2-95.6
		c-68-21-109-58-188-169c-68-96-158-278-144-292c2-2,81,24,175,58c95,33,174,59,176,57c2-2-62-218-143-480c-80-263-149-475-152-472
		c-3,3-64,240-136,527l-130,522l-536,3l-535,2l-44-145c-24-80-46-145-49-145c-4,0-113,344-293,928l-19,62h-1068V7005h-300v1710h-950
		V4895h950v1220h300V4895h1759l15,53c9,28,52,201,97,382c45,182,86,334,90,340c6,6,68-5,167-30l159-38l87-354l88-353h2648v635
		c0,431-4,651-11,687c-16,77-50,137-106,189l-48,45l50,50c100,97,115,163,115,489v245h470V4915h840v2320h110c61,0,110-3,110-6
		c0-4-23-81-51-171c-28-91-49-166-47-168c2-2,95,47,208,110l205,113l3-1092l2-1093l227-6c124-4,549-7,945-7h718l2,1332l3,1332
		l130,73c72,40,133,73,138,73c4,0,7-632,7-1405V4915h950l2,619l3,619l140-82l140-83l3-546l2-547h950l-2,792l-3,792l-66,40l-67,39
		l59,44c68,50,109,103,141,182l23,56l3,943l2,942L11551.6,8723.2z M2057.6,8005.2v-2880h-493l6,173c4,94,7,321,7,502l1,330l135,100
		c75,55,138,103,140,108c3,4-231,7-520,7h-526v-1220h-490v1093c0,600-3,1359-7,1685l-6,592h510l7-31c3-17,6-400,6-850v-819h717
		l6,482c4,265,7,647,7,850v368h685l87-287c48-158,86-289,83-291c-2-2-42,17-88,42c-83,45-87,46-176,46H2057.6z M2288.6,6398.2
		c-1,724,2,1317,6,1317c4,0,86-43,182-97c97-53,177-97,179-98c2-2-40-143-93-315c-53-171-95-314-92-316c2-2,70,32,151,77
		c81,45,149,79,151,77c4-3-468-1925-479-1953C2290.6,5085.2,2288.6,5673.2,2288.6,6398.2z M4175.6,5105.2h-213l-78,323
		c-43,177-82,329-86,337c-8,14-868,236-878,226c-3-2,32-49,77-103c45-54,84-103,87-110c3-6-32-156-78-332l-82-321h-194
		c-180,0-194,1-189,18c13,42,566,2263,566,2272c0,6-29,10-67,10c-56,0-77-5-122-30c-30-17-56-28-58-26c-2,2,24,97,58,210l63,206h724
		l6-32c9-51,644-2532,672-2630C4388.6,5106.2,4373.6,5105.2,4175.6,5105.2z M4556.6,6208.2l-1-898l-194,770
		c-106,424-193,780-194,792c0,17,33,40,193,127c105,58,193,106,195,106C4556.6,7105.2,4557.6,6701.2,4556.6,6208.2z M6241.6,5219.2
		l-7-119l-426,2c-234,1-563,5-729,9l-304,6l8,1149l7,1149h-79c-68,0-86-4-131-29c-35-19-53-25-53-16c0,7,26,100,59,206l59,194l33,7
		c19,4,283,7,588,8c305,0,557,2,559,5c3,3,94,5,202,5h197l7-92c11-173,9-950-3-995c-13-48-24-58-184-168c-64-44-117-83-117-87
		c0-4,57-47,128-97c152-107,168-123,181-181C6248.6,6125.2,6251.6,5413.2,6241.6,5219.2z M8086.6,7628.2l-62-163h-731l118-87l119-88
		l-7-419c-3-231-6-713-6-1073v-653h-370v673c0,371-3,889-7,1153l-6,479l-624-6l-7,47c-8,65-8,319,2,329c2,2,28.5,3.3,69.6,3.5
		c41.1,0.2,96.9-0.5,157.4-2.5c121-3,489-9,818-13c328-3,597-9,597-12C8147.6,7793.2,8120.6,7717.2,8086.6,7628.2z M9977.6,5125.2
		h-422c-233,0-561,3-729,7l-307,6l6,1144l5,1143h-78c-68,0-84-4-131-31c-30-17-54-28-54-24c0,9,123,410,127,415c4,4,270,8,1350,18
		l232,2l1-1340V5125.2z M12547.6,7735.2c0-526-4-796-11-832c-13-64-41-109-89-140c-85-55-309-213-310-218c0-3,70-46,155-95l155-90
		v-1255h-153c-85,0-202,3-260,7l-107,6v994l-213,126c-118,69-226,131-241,137c-15,5-86,10-157,10h-129v-1240h-493l4,393
		c2,215,2,861,1,1435l-2,1042h-90c-89,0-92-1-171-46c-45-25-83-43-86-40c-5,5,48,190,133,463l35,113l222,3c122,1,579,3,1015,5l792,2
		V7735.2z"/>
	<path id="path6" class="st0" d="M10897.6,8072.2c0-3,65-53,145-112l145-106v-318c0-175,3-406,7-514l6-196l250,6l249,6l137,94
		c75,52,148,102,162,110l27,16l7,499c4,274,4,502,0,506C12024.6,8071.2,10897.6,8080.2,10897.6,8072.2z M11807.6,7507.2v-338l-87-62
		l-87-62h-108h-108v400v400h195h195V7507.2z"/>
	<path id="path8" class="st0" d="M8774.6,7375.2l120-90l7-758c3-416,9-822,12-901l7-144l141,6c77,4,223,7,324,7h182v280
		c0,235,2,282,14,286c12,5,13,11,4,32c-7,19-8,240-3,700l7,672h-468h-468L8774.6,7375.2z M9357.6,6470.2v-765h-115h-115v758
		c0,417,3,762,7,765c3,4,55,7,115,7h108V6470.2z"/>
	<path id="path10" class="st0" d="M4927.6,7452.2c0-2,51-43,114-90l114-86l4-300c1-164,6-302,9-305s94-3,203,1l197,6l125,96l124,96
		v276v277l-122,6c-68,3-217,8-333,11c-115,3-261,8-322,11C4978.6,7454.2,4927.6,7455.2,4927.6,7452.2z M5615.6,7099.2l3-121l-55-42
		c-51-38-60-41-116-41h-60v158c0,87,3,162,7,166c4,3,54,5,112,4l106-3L5615.6,7099.2z"/>
	<path id="path12" class="st0" d="M4991.6,6229.2c3-9,6-21,6-28s38-40,84-72l83-59l7-265c4-146,9-279,12-296l6-31l71-2
		c40-1,185-6,322-10c138-5,251-7,252-6c2,1,6,134,9,296l7,294l-49,34c-27,19-88,63-135,98l-86,63h-298
		C5015.6,6245.2,4985.6,6243.2,4991.6,6229.2z M5557.6,5973.2l60-42v-123v-123h-115h-115v165v165h55
		C5492.6,6015.2,5505.6,6010.2,5557.6,5973.2z"/>
	<path id="path14" class="st0" d="M3439.6,7220.2c-18-67-80-345-137-615c-29-140-56-266-60-280c-6-26-5-26,147-68
		c84-23,192-52,239-66l86-24l-45,197c-24,108-83,354-131,546C3453.6,7247.2,3450.6,7259.2,3439.6,7220.2z"/>
	<path id="path16" class="st0" d="M3724.6,9078.2l-219-148l7-150c4-82,10-166,14-186l6-36l249,86c285,99,258,78,317,252
		c28,83,30,96,19,137c-17,68-58,149-87,172C3979.6,9245.2,3958.6,9236.2,3724.6,9078.2L3724.6,9078.2z"/>
	<path id="path18" class="st0" d="M3668.6,8470.2l-41-45l1-82c2-139,2-139,94-35c44,49,95,107,112,128l33,37l-62,21
		c-34,12-69,21-79,21C3717.6,8515.2,3691.6,8495.2,3668.6,8470.2z"/>
	<path id="path382" class="st1" d="M322.4,6815.5v1671.4h244.4h244.4v-850.4v-850.4h371.4H1554v249.2c0,137.1,5.8,519.8,12.9,850.4
		l12.9,601.1H1909c181,0,329.2-2.9,329.2-6.5c0-3.6,35.2-123.8,78.2-267.2s78.2-263.2,78.2-266.3c0-3-37.4,11.5-83.1,32.2
		c-45.7,20.7-124.9,37.9-175.9,38.1l-92.9,0.4V6580.9V5144h-237.6h-237.6l12.7,219.9c7,121,13,343.1,13.3,493.6l0.7,273.7
		l135.7,97.7c74.6,53.8,135.9,104.3,136.3,112.4c0.3,8.1-241.3,14.7-537,14.7H791.6v-606v-606H557H322.4V6815.5z"/>
	<path id="path384" class="st1" d="M3969.3,5126.7c-5.2,14.9-40.8,159-79.2,320.3c-38.3,161.3-76,303-83.8,315
		c-19.2,29.7-876.8,255.9-896.3,236.3c-3.9-3.9,31.4-56.7,78.4-117.3l85.5-110.2l-34.2-142.4c-18.8-78.3-54-219.4-78.2-313.5
		l-44-171.1h-185.4c-145.4,0-183.3,5.6-175.5,25.8c11.4,29.8,561.2,2234.7,561.2,2250.7c0,19.7-158.5,11-199.6-11.1
		c-46.3-24.8-48.7-45.1,25.6,212.4l46.6,161.3h353h353l55.8-229.7c30.7-126.3,181.9-721.7,336.1-1323.1s278.2-1095.5,275.6-1098.1
		s-90.2-11-194.8-18.6C4015.2,5102.3,3977,5104.8,3969.3,5126.7L3969.3,5126.7z M3723.9,6171.3c0,18.1-195.2,832.2-228.3,952
		c-17.1,61.8-37.9,112.4-46.3,112.4c-30.6,0-227.8-913-202.5-937.9c17.1-16.9,403-132.6,452.7-135.7
		C3712.9,6161.3,3723.9,6165.4,3723.9,6171.3z"/>
	<path id="path386" class="st1" d="M5167.5,5119.6l-384.2,5.7l10.8,1153l10.8,1153h-70.1c-38.6,0-93.9-9-123-20.1
		s-55.6-17.4-58.9-14.1s17.4,85.9,46.1,183.6l52.1,177.6l186.3,12.3c102.5,6.8,456.8,12.4,787.5,12.4l601.1,0.1V7254
		c0-291-8.1-544.3-18.1-562.9s-80.2-77.4-156.1-130.7c-75.9-53.3-137.9-101.3-137.8-106.7c0.1-5.4,65.9-57.6,146.2-116.1
		c80.3-58.5,149.7-120.1,154.3-136.8c20.8-76.1,33.3-575.3,20.5-822.7l-14.1-273.2l-334.7,4.4
		C5702.3,5111.8,5378.8,5116.4,5167.5,5119.6L5167.5,5119.6z M5850.3,5762.5l5.4,295.9l-134.8,100l-134.8,100h-294.6
		c-187.6,0-299.3-7.6-307.5-20.9c-7.1-11.5,27.5-57.9,76.8-103.2l89.7-82.3l13-286.8l13-286.8l50.8-8.1
		c27.9-4.5,178.3-7.1,334.2-5.9l283.5,2.2L5850.3,5762.5z M5705.2,6767.3l130,98.4v280.9v280.9l-219.9,11.2
		c-448.2,22.8-698.9,27.7-698.9,13.8c0-7.9,52.8-52.6,117.3-99.3l117.3-85v-299.6V6669h212.1h212.1L5705.2,6767.3z"/>
	<path id="path388" class="st1" d="M7164.5,5588.8c0,233.9-5.8,748.5-12.9,1143.6l-12.9,718.4h-307.1h-307.1l-12.1,73.3
		c-19.5,118-14.4,229.7,11.9,261.6c21.4,25.9,121.5,28.2,799.9,18.3c426.5-6.2,781.4-17.2,788.6-24.4c7.2-7.2-11.6-79.6-41.8-160.8
		l-54.9-147.7l-369.3-5.3l-369.3-5.3l119.4-86.5l119.4-86.5v-1062v-1062h-175.9h-175.9L7164.5,5588.8L7164.5,5588.8z"/>
	<path id="path390" class="st1" d="M8532.9,6287.6v1143.6h-79.5c-43.7,0-96.5-9.1-117.3-20.2c-50.2-26.9-49.2-11.6,14.1,199.2
		l51.9,172.9h541.3c297.7,0,648.2,5.8,778.9,12.8l237.7,12.8V6476.4V5144h-713.5H8533L8532.9,6287.6L8532.9,6287.6z M9574.6,5764.7
		c6,158.6,13.9,607.2,17.4,997l6.4,708.7h-475.2c-261.4,0-471.1-6.7-466-14.9s58.2-50,118-92.9l108.8-78l0.5-303
		c0.3-166.7,6.3-573.5,13.4-904.1l12.9-601.1h326.5h326.5L9574.6,5764.7z"/>
	<path id="path428" class="st1" d="M12105.8,5119.5l-170.7,6.5l-5.2,501.3l-5.2,501.3l-215,127.3
		c-210.6,124.7-218.4,127.5-376.3,135.2l-161.3,7.9v-617.8v-617.8h-234.6h-234.6v1427.1v1427.1h-98.7c-54.3,0-125.5-13.8-158.2-30.8
		c-32.7-16.9-63.1-27.2-67.4-22.9c-16.8,16.8,134.4,494.8,163.8,517.9c24,18.8,257.7,24.4,1015.6,24.4h984.5l-5.9-807.3
		c-5.3-724.6-9.3-812.5-39.5-858.6c-18.5-28.2-108.5-102.6-199.9-165.3c-91.4-62.7-166.5-120.4-166.7-128.4
		c-0.3-7.9,69.9-55.3,155.9-105.3l156.4-90.9v-622.9v-622.9l-83.1,4C12313.9,5111.2,12199.7,5115.9,12105.8,5119.5L12105.8,5119.5z
		 M11863.1,6933.7l162.9,108.4l12.8,365.6c7,201.1,12.8,433.8,12.8,517.1l0.1,151.5h-579.1c-651.6,0-627.1,8.3-414.7-140.7l114-80
		v-248.2c0-136.5,5.8-368.4,12.8-515.2l12.8-267h251.3h251.3L11863.1,6933.7z"/>
</g>
</svg>
